<svg xmlns="http://www.w3.org/2000/svg" width="280" height="220" viewBox="0 0 280 220" fill="none" aria-hidden="true">
  <!-- Möbius strip: parametric band with one half-twist -->
  <path d="M171.50,112.00 L171.48,111.84 L171.41,111.67 L171.29,111.51 L171.13,111.35 L170.92,111.19 L170.67,111.03 L170.37,110.87 L170.02,110.71 L169.62,110.55 L169.18,110.40 L168.69,110.25 L168.15,110.10 L167.56,109.95 L166.92,109.80 L166.23,109.66 L165.49,109.53 L164.70,109.40 L163.86,109.27 L162.96,109.15 L162.02,109.04 L161.02,108.94 L159.97,108.84 L158.87,108.76 L157.72,108.69 L156.51,108.62 L155.26,108.57 L153.95,108.54 L152.59,108.51 L151.18,108.51 L149.73,108.52 L148.22,108.55 L146.66,108.60 L145.06,108.67 L143.42,108.76 L141.73,108.88 L140.00,109.02 L138.23,109.19 L136.42,109.38 L134.58,109.61 L132.71,109.86 L130.80,110.14 L128.87,110.46 L126.91,110.81 L124.94,111.19 L122.95,111.61 L120.94,112.06 L118.92,112.55 L116.90,113.08 L114.88,113.65 L112.86,114.26 L110.84,114.91 L108.84,115.59 L106.86,116.32 L104.89,117.09 L102.96,117.90 L101.05,118.75 L99.18,119.63 L97.36,120.56 L95.58,121.53 L93.85,122.54 L92.18,123.59 L90.57,124.67 L89.03,125.79 L87.57,126.94 L86.18,128.13 L84.88,129.35 L83.67,130.60 L82.55,131.88 L81.53,133.18 L80.61,134.51 L79.80,135.86 L79.10,137.23 L78.52,138.62 L78.05,140.02 L77.71,141.43 L77.50,142.85 L77.42,144.28 L77.47,145.71 L77.65,147.14 L77.98,148.56 L78.44,149.98 L79.04,151.39 L79.78,152.78 L80.67,154.15 L81.70,155.50 L82.87,156.82 L84.19,158.12 L85.65,159.38 L87.24,160.61 L88.98,161.79 L90.86,162.93 L92.87,164.02 L95.01,165.06 L97.28,166.04 L99.68,166.97 L102.20,167.83 L104.84,168.63 L107.59,169.36 L110.44,170.01 L113.40,170.59 L116.46,171.10 L119.61,171.52 L122.84,171.86 L126.14,172.11 L129.52,172.28 L132.96,172.36 L136.46,172.35 L140.00,172.24 L143.58,172.04 L147.20,171.74 L150.83,171.35 L154.49,170.86 L158.14,170.27 L161.80,169.58 L165.44,168.80 L169.07,167.92 L172.66,166.94 L176.22,165.87 L179.73,164.70 L183.18,163.43 L186.57,162.08 L189.89,160.63 L193.13,159.09 L196.27,157.47 L199.32,155.76 L202.27,153.97 L205.10,152.11 L207.82,150.16 L210.40,148.15 L212.85,146.06 L215.17,143.91 L217.33,141.70 L219.35,139.44 L221.21,137.12 L222.90,134.75 L224.43,132.33 L225.79,129.88 L226.98,127.39 L227.99,124.87 L228.82,122.33 L229.47,119.76 L229.93,117.18 L230.21,114.59 L230.30,112.00 L171.50,112.00" stroke="#0c0a09" stroke-width="2" stroke-linecap="round" stroke-linejoin="round"/>
  <path d="M230.30,112.00 L230.21,109.41 L229.93,106.82 L229.47,104.24 L228.82,101.67 L227.99,99.13 L226.98,96.61 L225.79,94.12 L224.43,91.67 L222.90,89.25 L221.21,86.88 L219.35,84.56 L217.33,82.30 L215.17,80.09 L212.85,77.94 L210.40,75.85 L207.82,73.84 L205.10,71.89 L202.27,70.03 L199.32,68.24 L196.27,66.53 L193.13,64.91 L189.89,63.37 L186.57,61.92 L183.18,60.57 L179.73,59.30 L176.22,58.13 L172.66,57.06 L169.07,56.08 L165.44,55.20 L161.80,54.42 L158.14,53.73 L154.49,53.14 L150.83,52.65 L147.20,52.26 L143.58,51.96 L140.00,51.76 L136.46,51.65 L132.96,51.64 L129.52,51.72 L126.14,51.89 L122.84,52.14 L119.61,52.48 L116.46,52.90 L113.40,53.41 L110.44,53.99 L107.59,54.64 L104.84,55.37 L102.20,56.17 L99.68,57.03 L97.28,57.96 L95.01,58.94 L92.87,59.98 L90.86,61.07 L88.98,62.21 L87.24,63.39 L85.65,64.62 L84.19,65.88 L82.87,67.18 L81.70,68.50 L80.67,69.85 L79.78,71.22 L79.04,72.61 L78.44,74.02 L77.98,75.44 L77.65,76.86 L77.47,78.29 L77.42,79.72 L77.50,81.15 L77.71,82.57 L78.05,83.98 L78.52,85.38 L79.10,86.77 L79.80,88.14 L80.61,89.49 L81.53,90.82 L82.55,92.12 L83.67,93.40 L84.88,94.65 L86.18,95.87 L87.57,97.06 L89.03,98.21 L90.57,99.33 L92.18,100.41 L93.85,101.46 L95.58,102.47 L97.36,103.44 L99.18,104.37 L101.05,105.25 L102.96,106.10 L104.89,106.91 L106.86,107.68 L108.84,108.41 L110.84,109.09 L112.86,109.74 L114.88,110.35 L116.90,110.92 L118.92,111.45 L120.94,111.94 L122.95,112.39 L124.94,112.81 L126.91,113.19 L128.87,113.54 L130.80,113.86 L132.71,114.14 L134.58,114.39 L136.42,114.62 L138.23,114.81 L140.00,114.98 L141.73,115.12 L143.42,115.24 L145.06,115.33 L146.66,115.40 L148.22,115.45 L149.73,115.48 L151.18,115.49 L152.59,115.49 L153.95,115.46 L155.26,115.43 L156.51,115.38 L157.72,115.31 L158.87,115.24 L159.97,115.16 L161.02,115.06 L162.02,114.96 L162.96,114.85 L163.86,114.73 L164.70,114.60 L165.49,114.47 L166.23,114.34 L166.92,114.20 L167.56,114.05 L168.15,113.90 L168.69,113.75 L169.18,113.60 L169.62,113.45 L170.02,113.29 L170.37,113.13 L170.67,112.97 L170.92,112.81 L171.13,112.65 L171.29,112.49 L171.41,112.33 L171.48,112.16 L171.50,112.00 L230.30,112.00" stroke="#0c0a09" stroke-width="2" stroke-linecap="round" stroke-linejoin="round"/>
  <path d="M200.90,112.00 L200.84,110.62 L200.67,109.25 L200.38,107.87 L199.97,106.51 L199.46,105.16 L198.82,103.82 L198.08,102.50 L197.23,101.19 L196.26,99.90 L195.19,98.64 L194.02,97.40 L192.74,96.20 L191.36,95.02 L189.89,93.87 L188.32,92.76 L186.65,91.68 L184.90,90.65 L183.06,89.65 L181.14,88.70 L179.15,87.79 L177.07,86.92 L174.93,86.11 L172.72,85.34 L170.45,84.63 L168.12,83.96 L165.74,83.35 L163.31,82.80 L160.83,82.30 L158.31,81.85 L155.76,81.47 L153.18,81.14 L150.58,80.87 L147.95,80.66 L145.31,80.51 L142.66,80.42 L140.00,80.39 L137.34,80.42 L134.69,80.51 L132.05,80.66 L129.42,80.87 L126.82,81.14 L124.24,81.47 L121.69,81.85 L119.17,82.30 L116.69,82.80 L114.26,83.35 L111.88,83.96 L109.55,84.63 L107.28,85.34 L105.07,86.11 L102.93,86.92 L100.85,87.79 L98.86,88.70 L96.94,89.65 L95.10,90.65 L93.35,91.68 L91.68,92.76 L90.11,93.87 L88.64,95.02 L87.26,96.20 L85.98,97.40 L84.81,98.64 L83.74,99.90 L82.77,101.19 L81.92,102.50 L81.18,103.82 L80.54,105.16 L80.03,106.51 L79.62,107.87 L79.33,109.25 L79.16,110.62 L79.10,112.00 L79.16,113.38 L79.33,114.75 L79.62,116.13 L80.03,117.49 L80.54,118.84 L81.18,120.18 L81.92,121.50 L82.77,122.81 L83.74,124.10 L84.81,125.36 L85.98,126.60 L87.26,127.80 L88.64,128.98 L90.11,130.13 L91.68,131.24 L93.35,132.32 L95.10,133.35 L96.94,134.35 L98.86,135.30 L100.85,136.21 L102.93,137.08 L105.07,137.89 L107.28,138.66 L109.55,139.37 L111.88,140.04 L114.26,140.65 L116.69,141.20 L119.17,141.70 L121.69,142.15 L124.24,142.53 L126.82,142.86 L129.42,143.13 L132.05,143.34 L134.69,143.49 L137.34,143.58 L140.00,143.61 L142.66,143.58 L145.31,143.49 L147.95,143.34 L150.58,143.13 L153.18,142.86 L155.76,142.53 L158.31,142.15 L160.83,141.70 L163.31,141.20 L165.74,140.65 L168.12,140.04 L170.45,139.37 L172.72,138.66 L174.93,137.89 L177.07,137.08 L179.15,136.21 L181.14,135.30 L183.06,134.35 L184.90,133.35 L186.65,132.32 L188.32,131.24 L189.89,130.13 L191.36,128.98 L192.74,127.80 L194.02,126.60 L195.19,125.36 L196.26,124.10 L197.23,122.81 L198.08,121.50 L198.82,120.18 L199.46,118.84 L199.97,117.49 L200.38,116.13 L200.67,114.75 L200.84,113.38 L200.90,112.00 L200.90,112.00" stroke="#44403c" stroke-width="1.15" stroke-opacity="0.7" stroke-linecap="round" stroke-linejoin="round"/>
  <path d="M171.50,112.00 L230.30,112.00" stroke="#0c0a09" stroke-width="0.9" stroke-opacity="0.45"/><path d="M168.15,110.10 L217.33,82.30" stroke="#0c0a09" stroke-width="0.9" stroke-opacity="0.45"/><path d="M157.72,108.69 L183.18,60.57" stroke="#0c0a09" stroke-width="0.9" stroke-opacity="0.45"/><path d="M140.00,109.02 L140.00,51.76" stroke="#0c0a09" stroke-width="0.9" stroke-opacity="0.45"/><path d="M116.90,113.08 L102.20,56.17" stroke="#0c0a09" stroke-width="0.9" stroke-opacity="0.45"/><path d="M93.85,122.54 L80.67,69.85" stroke="#0c0a09" stroke-width="0.9" stroke-opacity="0.45"/><path d="M79.10,137.23 L79.10,86.77" stroke="#0c0a09" stroke-width="0.9" stroke-opacity="0.45"/><path d="M80.67,154.15 L93.85,101.46" stroke="#0c0a09" stroke-width="0.9" stroke-opacity="0.45"/><path d="M102.20,167.83 L116.90,110.92" stroke="#0c0a09" stroke-width="0.9" stroke-opacity="0.45"/><path d="M140.00,172.24 L140.00,114.98" stroke="#0c0a09" stroke-width="0.9" stroke-opacity="0.45"/><path d="M183.18,163.43 L157.72,115.31" stroke="#0c0a09" stroke-width="0.9" stroke-opacity="0.45"/><path d="M217.33,141.70 L168.15,113.90" stroke="#0c0a09" stroke-width="0.9" stroke-opacity="0.45"/><path d="M230.30,112.00 L171.50,112.00" stroke="#0c0a09" stroke-width="0.9" stroke-opacity="0.45"/>
</svg>