<?xml version="1.0" encoding="UTF-8"?>
<svg xmlns="http://www.w3.org/2000/svg" width="340" height="340" viewBox="0 0 340 340" fill="none">
  <g><line x1="170.00" y1="52.00" x2="200.54" y2="56.02" stroke="#44403c" stroke-opacity="0.68" stroke-width="0.78"/>
    <line x1="170.00" y1="52.00" x2="229.00" y2="67.81" stroke="#78716c" stroke-opacity="0.52" stroke-width="0.62"/>
    <line x1="170.00" y1="52.00" x2="253.44" y2="86.56" stroke="#44403c" stroke-opacity="0.68" stroke-width="0.78"/>
    <line x1="170.00" y1="52.00" x2="272.19" y2="111.00" stroke="#78716c" stroke-opacity="0.52" stroke-width="0.62"/>
    <line x1="170.00" y1="52.00" x2="283.98" y2="139.46" stroke="#44403c" stroke-opacity="0.68" stroke-width="0.78"/>
    <line x1="170.00" y1="52.00" x2="288.00" y2="170.00" stroke="#78716c" stroke-opacity="0.52" stroke-width="0.62"/>
    <line x1="170.00" y1="52.00" x2="283.98" y2="200.54" stroke="#44403c" stroke-opacity="0.68" stroke-width="0.78"/>
    <line x1="170.00" y1="52.00" x2="272.19" y2="229.00" stroke="#78716c" stroke-opacity="0.52" stroke-width="0.62"/>
    <line x1="170.00" y1="52.00" x2="253.44" y2="253.44" stroke="#44403c" stroke-opacity="0.68" stroke-width="0.78"/>
    <line x1="170.00" y1="52.00" x2="229.00" y2="272.19" stroke="#78716c" stroke-opacity="0.52" stroke-width="0.62"/>
    <line x1="170.00" y1="52.00" x2="200.54" y2="283.98" stroke="#44403c" stroke-opacity="0.68" stroke-width="0.78"/>
    <line x1="170.00" y1="52.00" x2="170.00" y2="288.00" stroke="#78716c" stroke-opacity="0.52" stroke-width="0.62"/>
    <line x1="170.00" y1="52.00" x2="139.46" y2="283.98" stroke="#44403c" stroke-opacity="0.68" stroke-width="0.78"/>
    <line x1="170.00" y1="52.00" x2="111.00" y2="272.19" stroke="#78716c" stroke-opacity="0.52" stroke-width="0.62"/>
    <line x1="170.00" y1="52.00" x2="86.56" y2="253.44" stroke="#44403c" stroke-opacity="0.68" stroke-width="0.78"/>
    <line x1="170.00" y1="52.00" x2="67.81" y2="229.00" stroke="#78716c" stroke-opacity="0.52" stroke-width="0.62"/>
    <line x1="170.00" y1="52.00" x2="56.02" y2="200.54" stroke="#44403c" stroke-opacity="0.68" stroke-width="0.78"/>
    <line x1="170.00" y1="52.00" x2="52.00" y2="170.00" stroke="#78716c" stroke-opacity="0.52" stroke-width="0.62"/>
    <line x1="170.00" y1="52.00" x2="56.02" y2="139.46" stroke="#44403c" stroke-opacity="0.68" stroke-width="0.78"/>
    <line x1="170.00" y1="52.00" x2="67.81" y2="111.00" stroke="#78716c" stroke-opacity="0.52" stroke-width="0.62"/>
    <line x1="170.00" y1="52.00" x2="86.56" y2="86.56" stroke="#44403c" stroke-opacity="0.68" stroke-width="0.78"/>
    <line x1="170.00" y1="52.00" x2="111.00" y2="67.81" stroke="#78716c" stroke-opacity="0.52" stroke-width="0.62"/>
    <line x1="170.00" y1="52.00" x2="139.46" y2="56.02" stroke="#44403c" stroke-opacity="0.68" stroke-width="0.78"/>
    <line x1="200.54" y1="56.02" x2="229.00" y2="67.81" stroke="#44403c" stroke-opacity="0.68" stroke-width="0.78"/>
    <line x1="200.54" y1="56.02" x2="253.44" y2="86.56" stroke="#78716c" stroke-opacity="0.52" stroke-width="0.62"/>
    <line x1="200.54" y1="56.02" x2="272.19" y2="111.00" stroke="#44403c" stroke-opacity="0.68" stroke-width="0.78"/>
    <line x1="200.54" y1="56.02" x2="283.98" y2="139.46" stroke="#78716c" stroke-opacity="0.52" stroke-width="0.62"/>
    <line x1="200.54" y1="56.02" x2="288.00" y2="170.00" stroke="#44403c" stroke-opacity="0.68" stroke-width="0.78"/>
    <line x1="200.54" y1="56.02" x2="283.98" y2="200.54" stroke="#78716c" stroke-opacity="0.52" stroke-width="0.62"/>
    <line x1="200.54" y1="56.02" x2="272.19" y2="229.00" stroke="#44403c" stroke-opacity="0.68" stroke-width="0.78"/>
    <line x1="200.54" y1="56.02" x2="253.44" y2="253.44" stroke="#78716c" stroke-opacity="0.52" stroke-width="0.62"/>
    <line x1="200.54" y1="56.02" x2="229.00" y2="272.19" stroke="#44403c" stroke-opacity="0.68" stroke-width="0.78"/>
    <line x1="200.54" y1="56.02" x2="200.54" y2="283.98" stroke="#78716c" stroke-opacity="0.52" stroke-width="0.62"/>
    <line x1="200.54" y1="56.02" x2="170.00" y2="288.00" stroke="#44403c" stroke-opacity="0.68" stroke-width="0.78"/>
    <line x1="200.54" y1="56.02" x2="139.46" y2="283.98" stroke="#78716c" stroke-opacity="0.52" stroke-width="0.62"/>
    <line x1="200.54" y1="56.02" x2="111.00" y2="272.19" stroke="#44403c" stroke-opacity="0.68" stroke-width="0.78"/>
    <line x1="200.54" y1="56.02" x2="86.56" y2="253.44" stroke="#78716c" stroke-opacity="0.52" stroke-width="0.62"/>
    <line x1="200.54" y1="56.02" x2="67.81" y2="229.00" stroke="#44403c" stroke-opacity="0.68" stroke-width="0.78"/>
    <line x1="200.54" y1="56.02" x2="56.02" y2="200.54" stroke="#78716c" stroke-opacity="0.52" stroke-width="0.62"/>
    <line x1="200.54" y1="56.02" x2="52.00" y2="170.00" stroke="#44403c" stroke-opacity="0.68" stroke-width="0.78"/>
    <line x1="200.54" y1="56.02" x2="56.02" y2="139.46" stroke="#78716c" stroke-opacity="0.52" stroke-width="0.62"/>
    <line x1="200.54" y1="56.02" x2="67.81" y2="111.00" stroke="#44403c" stroke-opacity="0.68" stroke-width="0.78"/>
    <line x1="200.54" y1="56.02" x2="86.56" y2="86.56" stroke="#78716c" stroke-opacity="0.52" stroke-width="0.62"/>
    <line x1="200.54" y1="56.02" x2="111.00" y2="67.81" stroke="#44403c" stroke-opacity="0.68" stroke-width="0.78"/>
    <line x1="200.54" y1="56.02" x2="139.46" y2="56.02" stroke="#78716c" stroke-opacity="0.52" stroke-width="0.62"/>
    <line x1="229.00" y1="67.81" x2="253.44" y2="86.56" stroke="#44403c" stroke-opacity="0.68" stroke-width="0.78"/>
    <line x1="229.00" y1="67.81" x2="272.19" y2="111.00" stroke="#78716c" stroke-opacity="0.52" stroke-width="0.62"/>
    <line x1="229.00" y1="67.81" x2="283.98" y2="139.46" stroke="#44403c" stroke-opacity="0.68" stroke-width="0.78"/>
    <line x1="229.00" y1="67.81" x2="288.00" y2="170.00" stroke="#78716c" stroke-opacity="0.52" stroke-width="0.62"/>
    <line x1="229.00" y1="67.81" x2="283.98" y2="200.54" stroke="#44403c" stroke-opacity="0.68" stroke-width="0.78"/>
    <line x1="229.00" y1="67.81" x2="272.19" y2="229.00" stroke="#78716c" stroke-opacity="0.52" stroke-width="0.62"/>
    <line x1="229.00" y1="67.81" x2="253.44" y2="253.44" stroke="#44403c" stroke-opacity="0.68" stroke-width="0.78"/>
    <line x1="229.00" y1="67.81" x2="229.00" y2="272.19" stroke="#78716c" stroke-opacity="0.52" stroke-width="0.62"/>
    <line x1="229.00" y1="67.81" x2="200.54" y2="283.98" stroke="#44403c" stroke-opacity="0.68" stroke-width="0.78"/>
    <line x1="229.00" y1="67.81" x2="170.00" y2="288.00" stroke="#78716c" stroke-opacity="0.52" stroke-width="0.62"/>
    <line x1="229.00" y1="67.81" x2="139.46" y2="283.98" stroke="#44403c" stroke-opacity="0.68" stroke-width="0.78"/>
    <line x1="229.00" y1="67.81" x2="111.00" y2="272.19" stroke="#78716c" stroke-opacity="0.52" stroke-width="0.62"/>
    <line x1="229.00" y1="67.81" x2="86.56" y2="253.44" stroke="#44403c" stroke-opacity="0.68" stroke-width="0.78"/>
    <line x1="229.00" y1="67.81" x2="67.81" y2="229.00" stroke="#78716c" stroke-opacity="0.52" stroke-width="0.62"/>
    <line x1="229.00" y1="67.81" x2="56.02" y2="200.54" stroke="#44403c" stroke-opacity="0.68" stroke-width="0.78"/>
    <line x1="229.00" y1="67.81" x2="52.00" y2="170.00" stroke="#78716c" stroke-opacity="0.52" stroke-width="0.62"/>
    <line x1="229.00" y1="67.81" x2="56.02" y2="139.46" stroke="#44403c" stroke-opacity="0.68" stroke-width="0.78"/>
    <line x1="229.00" y1="67.81" x2="67.81" y2="111.00" stroke="#78716c" stroke-opacity="0.52" stroke-width="0.62"/>
    <line x1="229.00" y1="67.81" x2="86.56" y2="86.56" stroke="#44403c" stroke-opacity="0.68" stroke-width="0.78"/>
    <line x1="229.00" y1="67.81" x2="111.00" y2="67.81" stroke="#78716c" stroke-opacity="0.52" stroke-width="0.62"/>
    <line x1="229.00" y1="67.81" x2="139.46" y2="56.02" stroke="#44403c" stroke-opacity="0.68" stroke-width="0.78"/>
    <line x1="253.44" y1="86.56" x2="272.19" y2="111.00" stroke="#44403c" stroke-opacity="0.68" stroke-width="0.78"/>
    <line x1="253.44" y1="86.56" x2="283.98" y2="139.46" stroke="#78716c" stroke-opacity="0.52" stroke-width="0.62"/>
    <line x1="253.44" y1="86.56" x2="288.00" y2="170.00" stroke="#44403c" stroke-opacity="0.68" stroke-width="0.78"/>
    <line x1="253.44" y1="86.56" x2="283.98" y2="200.54" stroke="#78716c" stroke-opacity="0.52" stroke-width="0.62"/>
    <line x1="253.44" y1="86.56" x2="272.19" y2="229.00" stroke="#44403c" stroke-opacity="0.68" stroke-width="0.78"/>
    <line x1="253.44" y1="86.56" x2="253.44" y2="253.44" stroke="#78716c" stroke-opacity="0.52" stroke-width="0.62"/>
    <line x1="253.44" y1="86.56" x2="229.00" y2="272.19" stroke="#44403c" stroke-opacity="0.68" stroke-width="0.78"/>
    <line x1="253.44" y1="86.56" x2="200.54" y2="283.98" stroke="#78716c" stroke-opacity="0.52" stroke-width="0.62"/>
    <line x1="253.44" y1="86.56" x2="170.00" y2="288.00" stroke="#44403c" stroke-opacity="0.68" stroke-width="0.78"/>
    <line x1="253.44" y1="86.56" x2="139.46" y2="283.98" stroke="#78716c" stroke-opacity="0.52" stroke-width="0.62"/>
    <line x1="253.44" y1="86.56" x2="111.00" y2="272.19" stroke="#44403c" stroke-opacity="0.68" stroke-width="0.78"/>
    <line x1="253.44" y1="86.56" x2="86.56" y2="253.44" stroke="#78716c" stroke-opacity="0.52" stroke-width="0.62"/>
    <line x1="253.44" y1="86.56" x2="67.81" y2="229.00" stroke="#44403c" stroke-opacity="0.68" stroke-width="0.78"/>
    <line x1="253.44" y1="86.56" x2="56.02" y2="200.54" stroke="#78716c" stroke-opacity="0.52" stroke-width="0.62"/>
    <line x1="253.44" y1="86.56" x2="52.00" y2="170.00" stroke="#44403c" stroke-opacity="0.68" stroke-width="0.78"/>
    <line x1="253.44" y1="86.56" x2="56.02" y2="139.46" stroke="#78716c" stroke-opacity="0.52" stroke-width="0.62"/>
    <line x1="253.44" y1="86.56" x2="67.81" y2="111.00" stroke="#44403c" stroke-opacity="0.68" stroke-width="0.78"/>
    <line x1="253.44" y1="86.56" x2="86.56" y2="86.56" stroke="#78716c" stroke-opacity="0.52" stroke-width="0.62"/>
    <line x1="253.44" y1="86.56" x2="111.00" y2="67.81" stroke="#44403c" stroke-opacity="0.68" stroke-width="0.78"/>
    <line x1="253.44" y1="86.56" x2="139.46" y2="56.02" stroke="#78716c" stroke-opacity="0.52" stroke-width="0.62"/>
    <line x1="272.19" y1="111.00" x2="283.98" y2="139.46" stroke="#44403c" stroke-opacity="0.68" stroke-width="0.78"/>
    <line x1="272.19" y1="111.00" x2="288.00" y2="170.00" stroke="#78716c" stroke-opacity="0.52" stroke-width="0.62"/>
    <line x1="272.19" y1="111.00" x2="283.98" y2="200.54" stroke="#44403c" stroke-opacity="0.68" stroke-width="0.78"/>
    <line x1="272.19" y1="111.00" x2="272.19" y2="229.00" stroke="#78716c" stroke-opacity="0.52" stroke-width="0.62"/>
    <line x1="272.19" y1="111.00" x2="253.44" y2="253.44" stroke="#44403c" stroke-opacity="0.68" stroke-width="0.78"/>
    <line x1="272.19" y1="111.00" x2="229.00" y2="272.19" stroke="#78716c" stroke-opacity="0.52" stroke-width="0.62"/>
    <line x1="272.19" y1="111.00" x2="200.54" y2="283.98" stroke="#44403c" stroke-opacity="0.68" stroke-width="0.78"/>
    <line x1="272.19" y1="111.00" x2="170.00" y2="288.00" stroke="#78716c" stroke-opacity="0.52" stroke-width="0.62"/>
    <line x1="272.19" y1="111.00" x2="139.46" y2="283.98" stroke="#44403c" stroke-opacity="0.68" stroke-width="0.78"/>
    <line x1="272.19" y1="111.00" x2="111.00" y2="272.19" stroke="#78716c" stroke-opacity="0.52" stroke-width="0.62"/>
    <line x1="272.19" y1="111.00" x2="86.56" y2="253.44" stroke="#44403c" stroke-opacity="0.68" stroke-width="0.78"/>
    <line x1="272.19" y1="111.00" x2="67.81" y2="229.00" stroke="#78716c" stroke-opacity="0.52" stroke-width="0.62"/>
    <line x1="272.19" y1="111.00" x2="56.02" y2="200.54" stroke="#44403c" stroke-opacity="0.68" stroke-width="0.78"/>
    <line x1="272.19" y1="111.00" x2="52.00" y2="170.00" stroke="#78716c" stroke-opacity="0.52" stroke-width="0.62"/>
    <line x1="272.19" y1="111.00" x2="56.02" y2="139.46" stroke="#44403c" stroke-opacity="0.68" stroke-width="0.78"/>
    <line x1="272.19" y1="111.00" x2="67.81" y2="111.00" stroke="#78716c" stroke-opacity="0.52" stroke-width="0.62"/>
    <line x1="272.19" y1="111.00" x2="86.56" y2="86.56" stroke="#44403c" stroke-opacity="0.68" stroke-width="0.78"/>
    <line x1="272.19" y1="111.00" x2="111.00" y2="67.81" stroke="#78716c" stroke-opacity="0.52" stroke-width="0.62"/>
    <line x1="272.19" y1="111.00" x2="139.46" y2="56.02" stroke="#44403c" stroke-opacity="0.68" stroke-width="0.78"/>
    <line x1="283.98" y1="139.46" x2="288.00" y2="170.00" stroke="#44403c" stroke-opacity="0.68" stroke-width="0.78"/>
    <line x1="283.98" y1="139.46" x2="283.98" y2="200.54" stroke="#78716c" stroke-opacity="0.52" stroke-width="0.62"/>
    <line x1="283.98" y1="139.46" x2="272.19" y2="229.00" stroke="#44403c" stroke-opacity="0.68" stroke-width="0.78"/>
    <line x1="283.98" y1="139.46" x2="253.44" y2="253.44" stroke="#78716c" stroke-opacity="0.52" stroke-width="0.62"/>
    <line x1="283.98" y1="139.46" x2="229.00" y2="272.19" stroke="#44403c" stroke-opacity="0.68" stroke-width="0.78"/>
    <line x1="283.98" y1="139.46" x2="200.54" y2="283.98" stroke="#78716c" stroke-opacity="0.52" stroke-width="0.62"/>
    <line x1="283.98" y1="139.46" x2="170.00" y2="288.00" stroke="#44403c" stroke-opacity="0.68" stroke-width="0.78"/>
    <line x1="283.98" y1="139.46" x2="139.46" y2="283.98" stroke="#78716c" stroke-opacity="0.52" stroke-width="0.62"/>
    <line x1="283.98" y1="139.46" x2="111.00" y2="272.19" stroke="#44403c" stroke-opacity="0.68" stroke-width="0.78"/>
    <line x1="283.98" y1="139.46" x2="86.56" y2="253.44" stroke="#78716c" stroke-opacity="0.52" stroke-width="0.62"/>
    <line x1="283.98" y1="139.46" x2="67.81" y2="229.00" stroke="#44403c" stroke-opacity="0.68" stroke-width="0.78"/>
    <line x1="283.98" y1="139.46" x2="56.02" y2="200.54" stroke="#78716c" stroke-opacity="0.52" stroke-width="0.62"/>
    <line x1="283.98" y1="139.46" x2="52.00" y2="170.00" stroke="#44403c" stroke-opacity="0.68" stroke-width="0.78"/>
    <line x1="283.98" y1="139.46" x2="56.02" y2="139.46" stroke="#78716c" stroke-opacity="0.52" stroke-width="0.62"/>
    <line x1="283.98" y1="139.46" x2="67.81" y2="111.00" stroke="#44403c" stroke-opacity="0.68" stroke-width="0.78"/>
    <line x1="283.98" y1="139.46" x2="86.56" y2="86.56" stroke="#78716c" stroke-opacity="0.52" stroke-width="0.62"/>
    <line x1="283.98" y1="139.46" x2="111.00" y2="67.81" stroke="#44403c" stroke-opacity="0.68" stroke-width="0.78"/>
    <line x1="283.98" y1="139.46" x2="139.46" y2="56.02" stroke="#78716c" stroke-opacity="0.52" stroke-width="0.62"/>
    <line x1="288.00" y1="170.00" x2="283.98" y2="200.54" stroke="#44403c" stroke-opacity="0.68" stroke-width="0.78"/>
    <line x1="288.00" y1="170.00" x2="272.19" y2="229.00" stroke="#78716c" stroke-opacity="0.52" stroke-width="0.62"/>
    <line x1="288.00" y1="170.00" x2="253.44" y2="253.44" stroke="#44403c" stroke-opacity="0.68" stroke-width="0.78"/>
    <line x1="288.00" y1="170.00" x2="229.00" y2="272.19" stroke="#78716c" stroke-opacity="0.52" stroke-width="0.62"/>
    <line x1="288.00" y1="170.00" x2="200.54" y2="283.98" stroke="#44403c" stroke-opacity="0.68" stroke-width="0.78"/>
    <line x1="288.00" y1="170.00" x2="170.00" y2="288.00" stroke="#78716c" stroke-opacity="0.52" stroke-width="0.62"/>
    <line x1="288.00" y1="170.00" x2="139.46" y2="283.98" stroke="#44403c" stroke-opacity="0.68" stroke-width="0.78"/>
    <line x1="288.00" y1="170.00" x2="111.00" y2="272.19" stroke="#78716c" stroke-opacity="0.52" stroke-width="0.62"/>
    <line x1="288.00" y1="170.00" x2="86.56" y2="253.44" stroke="#44403c" stroke-opacity="0.68" stroke-width="0.78"/>
    <line x1="288.00" y1="170.00" x2="67.81" y2="229.00" stroke="#78716c" stroke-opacity="0.52" stroke-width="0.62"/>
    <line x1="288.00" y1="170.00" x2="56.02" y2="200.54" stroke="#44403c" stroke-opacity="0.68" stroke-width="0.78"/>
    <line x1="288.00" y1="170.00" x2="52.00" y2="170.00" stroke="#78716c" stroke-opacity="0.52" stroke-width="0.62"/>
    <line x1="288.00" y1="170.00" x2="56.02" y2="139.46" stroke="#44403c" stroke-opacity="0.68" stroke-width="0.78"/>
    <line x1="288.00" y1="170.00" x2="67.81" y2="111.00" stroke="#78716c" stroke-opacity="0.52" stroke-width="0.62"/>
    <line x1="288.00" y1="170.00" x2="86.56" y2="86.56" stroke="#44403c" stroke-opacity="0.68" stroke-width="0.78"/>
    <line x1="288.00" y1="170.00" x2="111.00" y2="67.81" stroke="#78716c" stroke-opacity="0.52" stroke-width="0.62"/>
    <line x1="288.00" y1="170.00" x2="139.46" y2="56.02" stroke="#44403c" stroke-opacity="0.68" stroke-width="0.78"/>
    <line x1="283.98" y1="200.54" x2="272.19" y2="229.00" stroke="#44403c" stroke-opacity="0.68" stroke-width="0.78"/>
    <line x1="283.98" y1="200.54" x2="253.44" y2="253.44" stroke="#78716c" stroke-opacity="0.52" stroke-width="0.62"/>
    <line x1="283.98" y1="200.54" x2="229.00" y2="272.19" stroke="#44403c" stroke-opacity="0.68" stroke-width="0.78"/>
    <line x1="283.98" y1="200.54" x2="200.54" y2="283.98" stroke="#78716c" stroke-opacity="0.52" stroke-width="0.62"/>
    <line x1="283.98" y1="200.54" x2="170.00" y2="288.00" stroke="#44403c" stroke-opacity="0.68" stroke-width="0.78"/>
    <line x1="283.98" y1="200.54" x2="139.46" y2="283.98" stroke="#78716c" stroke-opacity="0.52" stroke-width="0.62"/>
    <line x1="283.98" y1="200.54" x2="111.00" y2="272.19" stroke="#44403c" stroke-opacity="0.68" stroke-width="0.78"/>
    <line x1="283.98" y1="200.54" x2="86.56" y2="253.44" stroke="#78716c" stroke-opacity="0.52" stroke-width="0.62"/>
    <line x1="283.98" y1="200.54" x2="67.81" y2="229.00" stroke="#44403c" stroke-opacity="0.68" stroke-width="0.78"/>
    <line x1="283.98" y1="200.54" x2="56.02" y2="200.54" stroke="#78716c" stroke-opacity="0.52" stroke-width="0.62"/>
    <line x1="283.98" y1="200.54" x2="52.00" y2="170.00" stroke="#44403c" stroke-opacity="0.68" stroke-width="0.78"/>
    <line x1="283.98" y1="200.54" x2="56.02" y2="139.46" stroke="#78716c" stroke-opacity="0.52" stroke-width="0.62"/>
    <line x1="283.98" y1="200.54" x2="67.81" y2="111.00" stroke="#44403c" stroke-opacity="0.68" stroke-width="0.78"/>
    <line x1="283.98" y1="200.54" x2="86.56" y2="86.56" stroke="#78716c" stroke-opacity="0.52" stroke-width="0.62"/>
    <line x1="283.98" y1="200.54" x2="111.00" y2="67.81" stroke="#44403c" stroke-opacity="0.68" stroke-width="0.78"/>
    <line x1="283.98" y1="200.54" x2="139.46" y2="56.02" stroke="#78716c" stroke-opacity="0.52" stroke-width="0.62"/>
    <line x1="272.19" y1="229.00" x2="253.44" y2="253.44" stroke="#44403c" stroke-opacity="0.68" stroke-width="0.78"/>
    <line x1="272.19" y1="229.00" x2="229.00" y2="272.19" stroke="#78716c" stroke-opacity="0.52" stroke-width="0.62"/>
    <line x1="272.19" y1="229.00" x2="200.54" y2="283.98" stroke="#44403c" stroke-opacity="0.68" stroke-width="0.78"/>
    <line x1="272.19" y1="229.00" x2="170.00" y2="288.00" stroke="#78716c" stroke-opacity="0.52" stroke-width="0.62"/>
    <line x1="272.19" y1="229.00" x2="139.46" y2="283.98" stroke="#44403c" stroke-opacity="0.68" stroke-width="0.78"/>
    <line x1="272.19" y1="229.00" x2="111.00" y2="272.19" stroke="#78716c" stroke-opacity="0.52" stroke-width="0.62"/>
    <line x1="272.19" y1="229.00" x2="86.56" y2="253.44" stroke="#44403c" stroke-opacity="0.68" stroke-width="0.78"/>
    <line x1="272.19" y1="229.00" x2="67.81" y2="229.00" stroke="#78716c" stroke-opacity="0.52" stroke-width="0.62"/>
    <line x1="272.19" y1="229.00" x2="56.02" y2="200.54" stroke="#44403c" stroke-opacity="0.68" stroke-width="0.78"/>
    <line x1="272.19" y1="229.00" x2="52.00" y2="170.00" stroke="#78716c" stroke-opacity="0.52" stroke-width="0.62"/>
    <line x1="272.19" y1="229.00" x2="56.02" y2="139.46" stroke="#44403c" stroke-opacity="0.68" stroke-width="0.78"/>
    <line x1="272.19" y1="229.00" x2="67.81" y2="111.00" stroke="#78716c" stroke-opacity="0.52" stroke-width="0.62"/>
    <line x1="272.19" y1="229.00" x2="86.56" y2="86.56" stroke="#44403c" stroke-opacity="0.68" stroke-width="0.78"/>
    <line x1="272.19" y1="229.00" x2="111.00" y2="67.81" stroke="#78716c" stroke-opacity="0.52" stroke-width="0.62"/>
    <line x1="272.19" y1="229.00" x2="139.46" y2="56.02" stroke="#44403c" stroke-opacity="0.68" stroke-width="0.78"/>
    <line x1="253.44" y1="253.44" x2="229.00" y2="272.19" stroke="#44403c" stroke-opacity="0.68" stroke-width="0.78"/>
    <line x1="253.44" y1="253.44" x2="200.54" y2="283.98" stroke="#78716c" stroke-opacity="0.52" stroke-width="0.62"/>
    <line x1="253.44" y1="253.44" x2="170.00" y2="288.00" stroke="#44403c" stroke-opacity="0.68" stroke-width="0.78"/>
    <line x1="253.44" y1="253.44" x2="139.46" y2="283.98" stroke="#78716c" stroke-opacity="0.52" stroke-width="0.62"/>
    <line x1="253.44" y1="253.44" x2="111.00" y2="272.19" stroke="#44403c" stroke-opacity="0.68" stroke-width="0.78"/>
    <line x1="253.44" y1="253.44" x2="86.56" y2="253.44" stroke="#78716c" stroke-opacity="0.52" stroke-width="0.62"/>
    <line x1="253.44" y1="253.44" x2="67.81" y2="229.00" stroke="#44403c" stroke-opacity="0.68" stroke-width="0.78"/>
    <line x1="253.44" y1="253.44" x2="56.02" y2="200.54" stroke="#78716c" stroke-opacity="0.52" stroke-width="0.62"/>
    <line x1="253.44" y1="253.44" x2="52.00" y2="170.00" stroke="#44403c" stroke-opacity="0.68" stroke-width="0.78"/>
    <line x1="253.44" y1="253.44" x2="56.02" y2="139.46" stroke="#78716c" stroke-opacity="0.52" stroke-width="0.62"/>
    <line x1="253.44" y1="253.44" x2="67.81" y2="111.00" stroke="#44403c" stroke-opacity="0.68" stroke-width="0.78"/>
    <line x1="253.44" y1="253.44" x2="86.56" y2="86.56" stroke="#78716c" stroke-opacity="0.52" stroke-width="0.62"/>
    <line x1="253.44" y1="253.44" x2="111.00" y2="67.81" stroke="#44403c" stroke-opacity="0.68" stroke-width="0.78"/>
    <line x1="253.44" y1="253.44" x2="139.46" y2="56.02" stroke="#78716c" stroke-opacity="0.52" stroke-width="0.62"/>
    <line x1="229.00" y1="272.19" x2="200.54" y2="283.98" stroke="#44403c" stroke-opacity="0.68" stroke-width="0.78"/>
    <line x1="229.00" y1="272.19" x2="170.00" y2="288.00" stroke="#78716c" stroke-opacity="0.52" stroke-width="0.62"/>
    <line x1="229.00" y1="272.19" x2="139.46" y2="283.98" stroke="#44403c" stroke-opacity="0.68" stroke-width="0.78"/>
    <line x1="229.00" y1="272.19" x2="111.00" y2="272.19" stroke="#78716c" stroke-opacity="0.52" stroke-width="0.62"/>
    <line x1="229.00" y1="272.19" x2="86.56" y2="253.44" stroke="#44403c" stroke-opacity="0.68" stroke-width="0.78"/>
    <line x1="229.00" y1="272.19" x2="67.81" y2="229.00" stroke="#78716c" stroke-opacity="0.52" stroke-width="0.62"/>
    <line x1="229.00" y1="272.19" x2="56.02" y2="200.54" stroke="#44403c" stroke-opacity="0.68" stroke-width="0.78"/>
    <line x1="229.00" y1="272.19" x2="52.00" y2="170.00" stroke="#78716c" stroke-opacity="0.52" stroke-width="0.62"/>
    <line x1="229.00" y1="272.19" x2="56.02" y2="139.46" stroke="#44403c" stroke-opacity="0.68" stroke-width="0.78"/>
    <line x1="229.00" y1="272.19" x2="67.81" y2="111.00" stroke="#78716c" stroke-opacity="0.52" stroke-width="0.62"/>
    <line x1="229.00" y1="272.19" x2="86.56" y2="86.56" stroke="#44403c" stroke-opacity="0.68" stroke-width="0.78"/>
    <line x1="229.00" y1="272.19" x2="111.00" y2="67.81" stroke="#78716c" stroke-opacity="0.52" stroke-width="0.62"/>
    <line x1="229.00" y1="272.19" x2="139.46" y2="56.02" stroke="#44403c" stroke-opacity="0.68" stroke-width="0.78"/>
    <line x1="200.54" y1="283.98" x2="170.00" y2="288.00" stroke="#44403c" stroke-opacity="0.68" stroke-width="0.78"/>
    <line x1="200.54" y1="283.98" x2="139.46" y2="283.98" stroke="#78716c" stroke-opacity="0.52" stroke-width="0.62"/>
    <line x1="200.54" y1="283.98" x2="111.00" y2="272.19" stroke="#44403c" stroke-opacity="0.68" stroke-width="0.78"/>
    <line x1="200.54" y1="283.98" x2="86.56" y2="253.44" stroke="#78716c" stroke-opacity="0.52" stroke-width="0.62"/>
    <line x1="200.54" y1="283.98" x2="67.81" y2="229.00" stroke="#44403c" stroke-opacity="0.68" stroke-width="0.78"/>
    <line x1="200.54" y1="283.98" x2="56.02" y2="200.54" stroke="#78716c" stroke-opacity="0.52" stroke-width="0.62"/>
    <line x1="200.54" y1="283.98" x2="52.00" y2="170.00" stroke="#44403c" stroke-opacity="0.68" stroke-width="0.78"/>
    <line x1="200.54" y1="283.98" x2="56.02" y2="139.46" stroke="#78716c" stroke-opacity="0.52" stroke-width="0.62"/>
    <line x1="200.54" y1="283.98" x2="67.81" y2="111.00" stroke="#44403c" stroke-opacity="0.68" stroke-width="0.78"/>
    <line x1="200.54" y1="283.98" x2="86.56" y2="86.56" stroke="#78716c" stroke-opacity="0.52" stroke-width="0.62"/>
    <line x1="200.54" y1="283.98" x2="111.00" y2="67.81" stroke="#44403c" stroke-opacity="0.68" stroke-width="0.78"/>
    <line x1="200.54" y1="283.98" x2="139.46" y2="56.02" stroke="#78716c" stroke-opacity="0.52" stroke-width="0.62"/>
    <line x1="170.00" y1="288.00" x2="139.46" y2="283.98" stroke="#44403c" stroke-opacity="0.68" stroke-width="0.78"/>
    <line x1="170.00" y1="288.00" x2="111.00" y2="272.19" stroke="#78716c" stroke-opacity="0.52" stroke-width="0.62"/>
    <line x1="170.00" y1="288.00" x2="86.56" y2="253.44" stroke="#44403c" stroke-opacity="0.68" stroke-width="0.78"/>
    <line x1="170.00" y1="288.00" x2="67.81" y2="229.00" stroke="#78716c" stroke-opacity="0.52" stroke-width="0.62"/>
    <line x1="170.00" y1="288.00" x2="56.02" y2="200.54" stroke="#44403c" stroke-opacity="0.68" stroke-width="0.78"/>
    <line x1="170.00" y1="288.00" x2="52.00" y2="170.00" stroke="#78716c" stroke-opacity="0.52" stroke-width="0.62"/>
    <line x1="170.00" y1="288.00" x2="56.02" y2="139.46" stroke="#44403c" stroke-opacity="0.68" stroke-width="0.78"/>
    <line x1="170.00" y1="288.00" x2="67.81" y2="111.00" stroke="#78716c" stroke-opacity="0.52" stroke-width="0.62"/>
    <line x1="170.00" y1="288.00" x2="86.56" y2="86.56" stroke="#44403c" stroke-opacity="0.68" stroke-width="0.78"/>
    <line x1="170.00" y1="288.00" x2="111.00" y2="67.81" stroke="#78716c" stroke-opacity="0.52" stroke-width="0.62"/>
    <line x1="170.00" y1="288.00" x2="139.46" y2="56.02" stroke="#44403c" stroke-opacity="0.68" stroke-width="0.78"/>
    <line x1="139.46" y1="283.98" x2="111.00" y2="272.19" stroke="#44403c" stroke-opacity="0.68" stroke-width="0.78"/>
    <line x1="139.46" y1="283.98" x2="86.56" y2="253.44" stroke="#78716c" stroke-opacity="0.52" stroke-width="0.62"/>
    <line x1="139.46" y1="283.98" x2="67.81" y2="229.00" stroke="#44403c" stroke-opacity="0.68" stroke-width="0.78"/>
    <line x1="139.46" y1="283.98" x2="56.02" y2="200.54" stroke="#78716c" stroke-opacity="0.52" stroke-width="0.62"/>
    <line x1="139.46" y1="283.98" x2="52.00" y2="170.00" stroke="#44403c" stroke-opacity="0.68" stroke-width="0.78"/>
    <line x1="139.46" y1="283.98" x2="56.02" y2="139.46" stroke="#78716c" stroke-opacity="0.52" stroke-width="0.62"/>
    <line x1="139.46" y1="283.98" x2="67.81" y2="111.00" stroke="#44403c" stroke-opacity="0.68" stroke-width="0.78"/>
    <line x1="139.46" y1="283.98" x2="86.56" y2="86.56" stroke="#78716c" stroke-opacity="0.52" stroke-width="0.62"/>
    <line x1="139.46" y1="283.98" x2="111.00" y2="67.81" stroke="#44403c" stroke-opacity="0.68" stroke-width="0.78"/>
    <line x1="139.46" y1="283.98" x2="139.46" y2="56.02" stroke="#78716c" stroke-opacity="0.52" stroke-width="0.62"/>
    <line x1="111.00" y1="272.19" x2="86.56" y2="253.44" stroke="#44403c" stroke-opacity="0.68" stroke-width="0.78"/>
    <line x1="111.00" y1="272.19" x2="67.81" y2="229.00" stroke="#78716c" stroke-opacity="0.52" stroke-width="0.62"/>
    <line x1="111.00" y1="272.19" x2="56.02" y2="200.54" stroke="#44403c" stroke-opacity="0.68" stroke-width="0.78"/>
    <line x1="111.00" y1="272.19" x2="52.00" y2="170.00" stroke="#78716c" stroke-opacity="0.52" stroke-width="0.62"/>
    <line x1="111.00" y1="272.19" x2="56.02" y2="139.46" stroke="#44403c" stroke-opacity="0.68" stroke-width="0.78"/>
    <line x1="111.00" y1="272.19" x2="67.81" y2="111.00" stroke="#78716c" stroke-opacity="0.52" stroke-width="0.62"/>
    <line x1="111.00" y1="272.19" x2="86.56" y2="86.56" stroke="#44403c" stroke-opacity="0.68" stroke-width="0.78"/>
    <line x1="111.00" y1="272.19" x2="111.00" y2="67.81" stroke="#78716c" stroke-opacity="0.52" stroke-width="0.62"/>
    <line x1="111.00" y1="272.19" x2="139.46" y2="56.02" stroke="#44403c" stroke-opacity="0.68" stroke-width="0.78"/>
    <line x1="86.56" y1="253.44" x2="67.81" y2="229.00" stroke="#44403c" stroke-opacity="0.68" stroke-width="0.78"/>
    <line x1="86.56" y1="253.44" x2="56.02" y2="200.54" stroke="#78716c" stroke-opacity="0.52" stroke-width="0.62"/>
    <line x1="86.56" y1="253.44" x2="52.00" y2="170.00" stroke="#44403c" stroke-opacity="0.68" stroke-width="0.78"/>
    <line x1="86.56" y1="253.44" x2="56.02" y2="139.46" stroke="#78716c" stroke-opacity="0.52" stroke-width="0.62"/>
    <line x1="86.56" y1="253.44" x2="67.81" y2="111.00" stroke="#44403c" stroke-opacity="0.68" stroke-width="0.78"/>
    <line x1="86.56" y1="253.44" x2="86.56" y2="86.56" stroke="#78716c" stroke-opacity="0.52" stroke-width="0.62"/>
    <line x1="86.56" y1="253.44" x2="111.00" y2="67.81" stroke="#44403c" stroke-opacity="0.68" stroke-width="0.78"/>
    <line x1="86.56" y1="253.44" x2="139.46" y2="56.02" stroke="#78716c" stroke-opacity="0.52" stroke-width="0.62"/>
    <line x1="67.81" y1="229.00" x2="56.02" y2="200.54" stroke="#44403c" stroke-opacity="0.68" stroke-width="0.78"/>
    <line x1="67.81" y1="229.00" x2="52.00" y2="170.00" stroke="#78716c" stroke-opacity="0.52" stroke-width="0.62"/>
    <line x1="67.81" y1="229.00" x2="56.02" y2="139.46" stroke="#44403c" stroke-opacity="0.68" stroke-width="0.78"/>
    <line x1="67.81" y1="229.00" x2="67.81" y2="111.00" stroke="#78716c" stroke-opacity="0.52" stroke-width="0.62"/>
    <line x1="67.81" y1="229.00" x2="86.56" y2="86.56" stroke="#44403c" stroke-opacity="0.68" stroke-width="0.78"/>
    <line x1="67.81" y1="229.00" x2="111.00" y2="67.81" stroke="#78716c" stroke-opacity="0.52" stroke-width="0.62"/>
    <line x1="67.81" y1="229.00" x2="139.46" y2="56.02" stroke="#44403c" stroke-opacity="0.68" stroke-width="0.78"/>
    <line x1="56.02" y1="200.54" x2="52.00" y2="170.00" stroke="#44403c" stroke-opacity="0.68" stroke-width="0.78"/>
    <line x1="56.02" y1="200.54" x2="56.02" y2="139.46" stroke="#78716c" stroke-opacity="0.52" stroke-width="0.62"/>
    <line x1="56.02" y1="200.54" x2="67.81" y2="111.00" stroke="#44403c" stroke-opacity="0.68" stroke-width="0.78"/>
    <line x1="56.02" y1="200.54" x2="86.56" y2="86.56" stroke="#78716c" stroke-opacity="0.52" stroke-width="0.62"/>
    <line x1="56.02" y1="200.54" x2="111.00" y2="67.81" stroke="#44403c" stroke-opacity="0.68" stroke-width="0.78"/>
    <line x1="56.02" y1="200.54" x2="139.46" y2="56.02" stroke="#78716c" stroke-opacity="0.52" stroke-width="0.62"/>
    <line x1="52.00" y1="170.00" x2="56.02" y2="139.46" stroke="#44403c" stroke-opacity="0.68" stroke-width="0.78"/>
    <line x1="52.00" y1="170.00" x2="67.81" y2="111.00" stroke="#78716c" stroke-opacity="0.52" stroke-width="0.62"/>
    <line x1="52.00" y1="170.00" x2="86.56" y2="86.56" stroke="#44403c" stroke-opacity="0.68" stroke-width="0.78"/>
    <line x1="52.00" y1="170.00" x2="111.00" y2="67.81" stroke="#78716c" stroke-opacity="0.52" stroke-width="0.62"/>
    <line x1="52.00" y1="170.00" x2="139.46" y2="56.02" stroke="#44403c" stroke-opacity="0.68" stroke-width="0.78"/>
    <line x1="56.02" y1="139.46" x2="67.81" y2="111.00" stroke="#44403c" stroke-opacity="0.68" stroke-width="0.78"/>
    <line x1="56.02" y1="139.46" x2="86.56" y2="86.56" stroke="#78716c" stroke-opacity="0.52" stroke-width="0.62"/>
    <line x1="56.02" y1="139.46" x2="111.00" y2="67.81" stroke="#44403c" stroke-opacity="0.68" stroke-width="0.78"/>
    <line x1="56.02" y1="139.46" x2="139.46" y2="56.02" stroke="#78716c" stroke-opacity="0.52" stroke-width="0.62"/>
    <line x1="67.81" y1="111.00" x2="86.56" y2="86.56" stroke="#44403c" stroke-opacity="0.68" stroke-width="0.78"/>
    <line x1="67.81" y1="111.00" x2="111.00" y2="67.81" stroke="#78716c" stroke-opacity="0.52" stroke-width="0.62"/>
    <line x1="67.81" y1="111.00" x2="139.46" y2="56.02" stroke="#44403c" stroke-opacity="0.68" stroke-width="0.78"/>
    <line x1="86.56" y1="86.56" x2="111.00" y2="67.81" stroke="#44403c" stroke-opacity="0.68" stroke-width="0.78"/>
    <line x1="86.56" y1="86.56" x2="139.46" y2="56.02" stroke="#78716c" stroke-opacity="0.52" stroke-width="0.62"/>
    <line x1="111.00" y1="67.81" x2="139.46" y2="56.02" stroke="#44403c" stroke-opacity="0.68" stroke-width="0.78"/></g>
  <g><circle cx="170.00" cy="52.00" r="5.2" fill="#c41e3a" fill-opacity="0.62" stroke="#57534e" stroke-opacity="0.38" stroke-width="0.75"/>
    <circle cx="200.54" cy="56.02" r="5.2" fill="#1d4ed8" fill-opacity="0.62" stroke="#57534e" stroke-opacity="0.38" stroke-width="0.75"/>
    <circle cx="229.00" cy="67.81" r="5.2" fill="#c41e3a" fill-opacity="0.62" stroke="#57534e" stroke-opacity="0.38" stroke-width="0.75"/>
    <circle cx="253.44" cy="86.56" r="5.2" fill="#1d4ed8" fill-opacity="0.62" stroke="#57534e" stroke-opacity="0.38" stroke-width="0.75"/>
    <circle cx="272.19" cy="111.00" r="5.2" fill="#c41e3a" fill-opacity="0.62" stroke="#57534e" stroke-opacity="0.38" stroke-width="0.75"/>
    <circle cx="283.98" cy="139.46" r="5.2" fill="#1d4ed8" fill-opacity="0.62" stroke="#57534e" stroke-opacity="0.38" stroke-width="0.75"/>
    <circle cx="288.00" cy="170.00" r="5.2" fill="#c41e3a" fill-opacity="0.62" stroke="#57534e" stroke-opacity="0.38" stroke-width="0.75"/>
    <circle cx="283.98" cy="200.54" r="5.2" fill="#1d4ed8" fill-opacity="0.62" stroke="#57534e" stroke-opacity="0.38" stroke-width="0.75"/>
    <circle cx="272.19" cy="229.00" r="5.2" fill="#c41e3a" fill-opacity="0.62" stroke="#57534e" stroke-opacity="0.38" stroke-width="0.75"/>
    <circle cx="253.44" cy="253.44" r="5.2" fill="#1d4ed8" fill-opacity="0.62" stroke="#57534e" stroke-opacity="0.38" stroke-width="0.75"/>
    <circle cx="229.00" cy="272.19" r="5.2" fill="#c41e3a" fill-opacity="0.62" stroke="#57534e" stroke-opacity="0.38" stroke-width="0.75"/>
    <circle cx="200.54" cy="283.98" r="5.2" fill="#1d4ed8" fill-opacity="0.62" stroke="#57534e" stroke-opacity="0.38" stroke-width="0.75"/>
    <circle cx="170.00" cy="288.00" r="5.2" fill="#c41e3a" fill-opacity="0.62" stroke="#57534e" stroke-opacity="0.38" stroke-width="0.75"/>
    <circle cx="139.46" cy="283.98" r="5.2" fill="#1d4ed8" fill-opacity="0.62" stroke="#57534e" stroke-opacity="0.38" stroke-width="0.75"/>
    <circle cx="111.00" cy="272.19" r="5.2" fill="#c41e3a" fill-opacity="0.62" stroke="#57534e" stroke-opacity="0.38" stroke-width="0.75"/>
    <circle cx="86.56" cy="253.44" r="5.2" fill="#1d4ed8" fill-opacity="0.62" stroke="#57534e" stroke-opacity="0.38" stroke-width="0.75"/>
    <circle cx="67.81" cy="229.00" r="5.2" fill="#c41e3a" fill-opacity="0.62" stroke="#57534e" stroke-opacity="0.38" stroke-width="0.75"/>
    <circle cx="56.02" cy="200.54" r="5.2" fill="#1d4ed8" fill-opacity="0.62" stroke="#57534e" stroke-opacity="0.38" stroke-width="0.75"/>
    <circle cx="52.00" cy="170.00" r="5.2" fill="#c41e3a" fill-opacity="0.62" stroke="#57534e" stroke-opacity="0.38" stroke-width="0.75"/>
    <circle cx="56.02" cy="139.46" r="5.2" fill="#1d4ed8" fill-opacity="0.62" stroke="#57534e" stroke-opacity="0.38" stroke-width="0.75"/>
    <circle cx="67.81" cy="111.00" r="5.2" fill="#c41e3a" fill-opacity="0.62" stroke="#57534e" stroke-opacity="0.38" stroke-width="0.75"/>
    <circle cx="86.56" cy="86.56" r="5.2" fill="#1d4ed8" fill-opacity="0.62" stroke="#57534e" stroke-opacity="0.38" stroke-width="0.75"/>
    <circle cx="111.00" cy="67.81" r="5.2" fill="#c41e3a" fill-opacity="0.62" stroke="#57534e" stroke-opacity="0.38" stroke-width="0.75"/>
    <circle cx="139.46" cy="56.02" r="5.2" fill="#1d4ed8" fill-opacity="0.62" stroke="#57534e" stroke-opacity="0.38" stroke-width="0.75"/></g>
</svg>