<svg xmlns="http://www.w3.org/2000/svg" width="220" height="220" viewBox="0 0 220 220" fill="none">
  <defs>
    <style>
      .g { stroke: #78716c; stroke-opacity: 0.32; }
      .b { stroke: #78716c; stroke-opacity: 0.5; stroke-width: 1.25; }
      .n {
        fill: #57534e;
        fill-opacity: 0.38;
        font-family: Georgia, "Times New Roman", serif;
        font-size: 14px;
        font-style: italic;
        text-anchor: middle;
        dominant-baseline: central;
      }
    </style>
  </defs>
  <g class="g" stroke-width="0.5">
    <path d="M14 14h192v192H14z"/>
    <path d="M14 35.33h192M35.33 14v192M14 56.67h192M56.67 14v192M14 78.00h192M78.00 14v192M14 99.33h192M99.33 14v192M14 120.67h192M120.67 14v192M14 142.00h192M142.00 14v192M14 163.33h192M163.33 14v192M14 184.67h192M184.67 14v192"/>
  </g>
  <g class="b">
    <path d="M14 14h192v192H14z"/>
    <path d="M14 78.00h192M14 142.00h192M78.00 14v192M142.00 14v192"/>
  </g>
  <g class="n">
    <text x="46.00" y="24.67">5</text><text x="67.33" y="24.67">6</text><text x="88.67" y="24.67">8</text><text x="110.00" y="24.67">3</text><text x="131.33" y="24.67">9</text><text x="152.67" y="24.67">1</text><text x="174.00" y="24.67">2</text><text x="195.33" y="24.67">7</text><text x="24.67" y="46.00">8</text><text x="46.00" y="46.00">3</text><text x="67.33" y="46.00">9</text><text x="88.67" y="46.00">1</text><text x="110.00" y="46.00">2</text><text x="131.33" y="46.00">7</text><text x="152.67" y="46.00">4</text><text x="195.33" y="46.00">6</text><text x="24.67" y="67.33">1</text><text x="46.00" y="67.33">2</text><text x="67.33" y="67.33">7</text><text x="88.67" y="67.33">4</text><text x="110.00" y="67.33">5</text><text x="152.67" y="67.33">8</text><text x="174.00" y="67.33">3</text><text x="195.33" y="67.33">9</text><text x="24.67" y="88.67">5</text><text x="46.00" y="88.67">6</text><text x="88.67" y="88.67">3</text><text x="110.00" y="88.67">9</text><text x="131.33" y="88.67">1</text><text x="152.67" y="88.67">2</text><text x="174.00" y="88.67">7</text><text x="195.33" y="88.67">4</text><text x="46.00" y="110.00">9</text><text x="67.33" y="110.00">1</text><text x="88.67" y="110.00">2</text><text x="110.00" y="110.00">7</text><text x="131.33" y="110.00">4</text><text x="152.67" y="110.00">5</text><text x="174.00" y="110.00">6</text><text x="195.33" y="110.00">8</text><text x="24.67" y="131.33">2</text><text x="46.00" y="131.33">7</text><text x="67.33" y="131.33">4</text><text x="88.67" y="131.33">5</text><text x="110.00" y="131.33">6</text><text x="131.33" y="131.33">8</text><text x="152.67" y="131.33">3</text><text x="195.33" y="131.33">1</text><text x="46.00" y="152.67">8</text><text x="67.33" y="152.67">3</text><text x="88.67" y="152.67">9</text><text x="110.00" y="152.67">1</text><text x="131.33" y="152.67">2</text><text x="152.67" y="152.67">7</text><text x="174.00" y="152.67">4</text><text x="195.33" y="152.67">5</text><text x="24.67" y="174.00">9</text><text x="46.00" y="174.00">1</text><text x="67.33" y="174.00">2</text><text x="88.67" y="174.00">7</text><text x="110.00" y="174.00">4</text><text x="131.33" y="174.00">5</text><text x="152.67" y="174.00">6</text><text x="195.33" y="174.00">3</text><text x="24.67" y="195.33">7</text><text x="67.33" y="195.33">5</text><text x="88.67" y="195.33">6</text><text x="110.00" y="195.33">8</text><text x="131.33" y="195.33">3</text><text x="152.67" y="195.33">9</text><text x="174.00" y="195.33">1</text><text x="195.33" y="195.33">2</text>
  </g>
</svg>